<svg class="logo__image" xmlns="http://www.w3.org/2000/svg" viewBox="0 0 103 30" fill="currentColor">
      <path d="M69.447 11.49c-4.6.013-9.208.007-13.812.008-2.158 0-4.316-.01-6.474.01-.477 0-.561-.136-.406-.564.294-.81.553-1.633.829-2.449a1.865 1.865 0 012.137-1.537q7.769-.011 15.538-.013c1.313 0 2.626-.005 3.939 0 .3 0 .518-.041.629-.366.683-2 1.356-4.012 2.08-6 .192-.527.052-.579-.425-.577-4.28.013-8.56.008-13.737.008-3.668.079-8.235-.111-12.8.081a3.429 3.429 0 00-3.2 2.372c-.32.764-.518 1.568-.786 2.349q-1.247 3.642-2.52 7.275c-.888 2.542-1.828 5.068-2.664 7.628a26.966 26.966 0 00-1.608 5.569 3.429 3.429 0 001.642 3.2 10.361 10.361 0 005.145 1.054c6.654.018 13.308 0 19.963.021.589 0 .852-.125 1.044-.736.587-1.865 1.287-3.7 1.924-5.546.2-.585.175-.6-.451-.6H47.953a12.749 12.749 0 01-1.609-.1c-.922-.116-1.25-.593-1.094-1.525.117-.7.538-1.3.657-1.988.113-.652.452-.742 1.039-.741 6.708.02 13.417.008 20.124.024.456 0 .7-.134.819-.568.538-1.959 1.379-3.814 1.994-5.748.154-.491.015-.542-.436-.541z">
      </path>
      <path d="M69.614 28.937c-.209.614-.2.618.449.618h13.215c4.4 0 8.81-.008 13.215.011a.733.733 0 00.843-.616c.164-.6.389-1.193.575-1.793.4-1.286.974-2.512 1.322-3.816.176-.658.178-.658-.534-.658H80.306c-.69 0-.679 0-.482-.647.861-2.817 2.036-5.526 2.863-8.356.554-1.9 1.311-3.725 1.964-5.589.884-2.522 1.676-5.076 2.554-7.6.171-.491.015-.489-.364-.488-2.212.008-4.423.022-6.634-.009a.838.838 0 00-.956.682c-1.278 3.815-2.588 7.619-3.888 11.426q-2.874 8.42-5.749 16.835z">
      </path>
      <path d="M35.147.317a10.072 10.072 0 00-2.394-.305q-10.142-.006-20.284 0a10.471 10.471 0 00-1.393.1A3.973 3.973 0 007.753 2.43a34.72 34.72 0 00-1.184 3.4c-.8 2.268-1.586 4.542-2.412 6.8-1.154 3.152-2.088 6.383-3.372 9.492a8.062 8.062 0 00-.7 4.458 2.958 2.958 0 001.646 2.373 6.625 6.625 0 002.875.583c3.47.025 6.941.009 10.412.009 2.428 0 4.855.013 7.283 0a37 37 0 004.2-.087 3.978 3.978 0 003.159-1.873 16.694 16.694 0 001.309-3.294c1.254-3.555 2.549-7.094 3.813-10.645.747-2.1 1.461-4.208 2.2-6.309a10.84 10.84 0 00.6-3.967A2.945 2.945 0 0035.147.317zm-7.167 9.821c-1.326 3.306-2.394 6.7-3.572 10.062-.113.322-.243.639-.387.948a2.312 2.312 0 01-2 1.433c-1.813.159-3.63.014-5.445.061h-.377v.023h-4.693c-.233 0-.467-.013-.7-.024-1.241-.058-1.835-.767-1.4-2.126.924-2.911 1.975-5.784 3.007-8.66.3-.829.564-1.668.853-2.5a3 3 0 013.364-2.4c3.2-.018 6.4.056 9.6-.054a5.122 5.122 0 011.019.067 1.168 1.168 0 011.107 1.336 4.856 4.856 0 01-.377 1.833z">
      </path>
      <path d="M96.069 4.95V.608h1.491V.073h-3.611v.535h1.483V4.95z">
      </path>
      <path d="M102.213 2.808l.123 2.142h.615l-.3-4.877h-.8l-.869 2.359c-.217.615-.39 1.151-.513 1.643h-.022a19.7 19.7 0 00-.492-1.643L99.123.073h-.8l-.34 4.877h.6l.13-2.091c.044-.731.08-1.549.094-2.157h.014c.138.579.333 1.209.564 1.9l.789 2.323h.477l.861-2.366a28.75 28.75 0 00.615-1.853h.021c-.014.604.026 1.422.065 2.102z">
      </path>
    </svg>
