<?xml version="1.0" encoding="UTF-8"?>
<!-- Generator: Adobe Illustrator 16.0.3, SVG Export Plug-In . SVG Version: 6.00 Build 0)  -->
<svg xmlns="http://www.w3.org/2000/svg" xmlns:xlink="http://www.w3.org/1999/xlink" version="1.1" id="Ebene_1" x="0px" y="0px" width="340.157px" height="170.079px" viewBox="0 0 340.157 170.079" xml:space="preserve">
<g>
	<g>
		<g>
			<path fill="#FFCD05" d="M314.109,78.309c-1.189,0-2.306-0.298-3.32-0.886c-1.011-0.586-1.821-1.396-2.408-2.408     c-0.588-1.014-0.886-2.131-0.886-3.32c0-1.188,0.299-2.305,0.888-3.319c0.587-1.009,1.398-1.819,2.413-2.407     c1.015-0.588,2.133-0.885,3.325-0.885c0.896,0,1.755,0.17,2.555,0.505c0.798,0.338,1.51,0.816,2.119,1.423     c0.613,0.618,1.09,1.331,1.422,2.125c0.335,0.803,0.505,1.664,0.505,2.559c0,1.19-0.298,2.308-0.886,3.32     c-0.588,1.012-1.397,1.822-2.406,2.408C316.415,78.011,315.298,78.309,314.109,78.309z M313.792,75.192     c0.108,0.009,0.217,0.014,0.329,0.014c0.097,0,0.193-0.003,0.287-0.01l-0.511-0.989c-0.036-0.066-0.071-0.128-0.104-0.188V75.192     z M316.561,72.384c0.115,0.177,0.24,0.386,0.378,0.626l0.238,0.406c0.297-0.531,0.443-1.097,0.443-1.723     c0-0.432-0.068-0.833-0.206-1.214c-0.007,0.658-0.244,1.259-0.686,1.738C316.675,72.276,316.619,72.332,316.561,72.384z"></path>
			<path d="M314.121,66.083c0.766,0,1.488,0.143,2.168,0.428c0.679,0.287,1.28,0.69,1.8,1.209c0.518,0.521,0.921,1.123,1.205,1.802     c0.285,0.683,0.428,1.407,0.428,2.173c0,1.018-0.251,1.957-0.751,2.818c-0.501,0.862-1.182,1.545-2.043,2.045     c-0.863,0.5-1.801,0.751-2.818,0.751c-1.017,0-1.956-0.251-2.818-0.751s-1.544-1.183-2.045-2.045     c-0.5-0.861-0.751-1.801-0.751-2.818c0-1.016,0.251-1.954,0.752-2.816c0.502-0.863,1.187-1.544,2.05-2.045     C312.162,66.333,313.104,66.083,314.121,66.083 M314.121,76.206c0.826,0,1.581-0.201,2.266-0.604     c0.688-0.403,1.23-0.95,1.633-1.643c0.399-0.694,0.601-1.448,0.601-2.265c0-0.817-0.2-1.575-0.6-2.27     c-0.399-0.691-0.942-1.239-1.628-1.641c-0.687-0.398-1.437-0.6-2.256-0.6c-0.82,0-1.577,0.202-2.272,0.604     c-0.698,0.403-1.249,0.95-1.654,1.645c-0.409,0.691-0.611,1.447-0.611,2.261c0,0.816,0.204,1.572,0.612,2.268     c0.408,0.696,0.957,1.244,1.65,1.644C312.557,76.006,313.308,76.206,314.121,76.206 M314.404,68.76     c0.441,0,0.809,0.07,1.109,0.209c0.297,0.139,0.522,0.337,0.674,0.594c0.152,0.258,0.228,0.554,0.228,0.889     c0,0.423-0.14,0.785-0.421,1.09c-0.284,0.305-0.676,0.491-1.176,0.561c0.257,0.097,0.467,0.241,0.625,0.435     c0.158,0.19,0.368,0.515,0.63,0.972l0.703,1.196h-1.495l-0.494-0.956c-0.232-0.425-0.428-0.743-0.59-0.951     c-0.162-0.205-0.325-0.345-0.488-0.419c-0.162-0.072-0.36-0.107-0.596-0.107h-0.319v2.434h-1.214V68.76H314.404 M312.792,71.325     h0.983c0.442,0,0.778-0.058,1.01-0.173s0.347-0.344,0.347-0.687c0-0.233-0.1-0.42-0.302-0.555     c-0.201-0.14-0.516-0.207-0.938-0.207h-1.1V71.325 M314.121,64.083c-1.37,0-2.657,0.343-3.825,1.019     c-1.168,0.678-2.102,1.61-2.777,2.771c-0.679,1.169-1.023,2.455-1.023,3.822c0,1.368,0.343,2.654,1.021,3.822     c0.676,1.164,1.608,2.097,2.771,2.771c1.167,0.677,2.453,1.021,3.821,1.021c1.367,0,2.653-0.343,3.821-1.021     c0.735-0.427,1.379-0.957,1.923-1.584h0.415l-0.172-0.293c0.22-0.281,0.421-0.579,0.604-0.893     c0.678-1.168,1.021-2.454,1.021-3.823c0-1.028-0.196-2.018-0.583-2.944c-0.382-0.914-0.931-1.734-1.631-2.439     c-0.708-0.706-1.527-1.256-2.44-1.642C316.14,64.279,315.15,64.083,314.121,64.083L314.121,64.083z"></path>
		</g>
	</g>
	<g>
		<polygon fill="#FFCD05" points="127.199,101.359 127.199,85.944 125.597,85.944 125.597,101.359 107.62,101.359 107.62,65.155     125.597,65.155 125.597,80.455 127.199,80.455 127.199,65.155 145.625,65.155 145.625,101.359   "></polygon>
		<path d="M144.625,66.155v2.138v4.162v5.514v6.076v6.074v5.29v3.488v1.462h-16.427V84.944h-3.602v15.415H108.62V66.155h15.978v15.3    h3.602v-15.3H144.625 M146.625,64.155h-2h-16.427h-1.602h-2H108.62h-2v2v34.204v2h2h15.978h2h1.602h16.427h2v-2v-1.462v-3.488    v-5.29v-6.074v-6.076v-5.514v-4.162v-2.138V64.155L146.625,64.155z"></path>
	</g>
	<g>
		<rect x="147.339" y="65.155" fill="#FFCD05" width="17.862" height="36.204"></rect>
		<path d="M164.201,66.155v34.204h-15.862V66.155H164.201 M166.201,64.155h-2h-15.862h-2v2v34.204v2h2h15.862h2v-2V66.155V64.155    L166.201,64.155z"></path>
	</g>
	<g>
		<polygon fill="#FFCD05" points="235.776,101.359 235.776,74.875 226.325,90.29 226.325,64.93 264.667,64.93 264.667,90.327     255.329,74.912 255.329,101.359   "></polygon>
		<path d="M263.667,65.93v20.816l-9.339-15.415v29.028h-17.553V71.331l-9.451,15.415V65.93H263.667 M265.667,63.93h-2h-36.343h-2v2    v20.816v7.088l3.705-6.043l5.746-9.372v21.94v2h2h17.553h2v-2V78.492l5.628,9.29l3.71,6.125v-7.161V65.93V63.93L265.667,63.93z"></path>
	</g>
	<g>
		<polygon fill="#FFCD05" points="286.747,101.359 286.747,85.834 284.808,85.834 284.808,101.359 266.606,101.359 266.606,64.93     284.808,64.93 284.808,80.455 286.747,80.455 286.747,64.93 305.061,64.93 305.061,101.359   "></polygon>
		<path d="M304.061,65.93v2.139v4.274v5.514v6.188v6.074v5.29v3.488v1.462h-16.314V84.834h-3.939v15.525h-16.202V65.93h16.202    v15.525h3.939V65.93H304.061 M306.061,63.93h-2h-16.314h-1.939h-2h-16.202h-2v2v34.43v2h2h16.202h2h1.939h16.314h2v-2v-1.462    v-3.488v-5.29v-6.074v-6.188v-5.514v-4.274V65.93V63.93L306.061,63.93z"></path>
	</g>
	<g>
		<path fill="#FFCD05" d="M46.772,65.39l2.496-0.029c0,0,5.277-0.061,8.786-0.061c1.635,0,2.61,0.013,2.983,0.04    c0.944,0.068,1.748,0.24,2.457,0.528c1.814,0.737,2.881,2.089,3.526,3.042c0.978,1.447,1.186,3.157,1.188,4.336    c0.003,1.794-0.004,3.588-0.011,5.382c-0.005,1.479-0.011,2.959-0.011,4.438v2.3L46.772,65.39z"></path>
		<path d="M58.054,66.301c1.407,0,2.53,0.01,2.912,0.037c0.751,0.054,1.481,0.185,2.153,0.457c1.35,0.549,2.273,1.493,3.074,2.676    c0.74,1.095,1.014,2.482,1.017,3.778c0.006,3.271-0.022,6.545-0.022,9.817L49.28,66.361C49.28,66.361,54.549,66.301,58.054,66.301     M58.054,64.301c-3.476,0-8.744,0.06-8.797,0.061l-4.991,0.058l3.65,3.405l17.907,16.705l3.364,3.139v-4.601    c0-1.478,0.006-2.956,0.011-4.434c0.007-1.796,0.014-3.592,0.011-5.387c-0.003-1.32-0.241-3.24-1.359-4.895    c-0.719-1.062-1.913-2.569-3.979-3.409c-0.809-0.329-1.712-0.524-2.763-0.6C60.855,64.325,60.263,64.301,58.054,64.301    L58.054,64.301z"></path>
	</g>
	<g>
		<path fill="#FFCD05" d="M59.241,101.349c-2.06,0-4.404-0.051-4.404-0.051l-0.978-0.021l0-0.978c0-0.742-0.043-1.552-0.095-1.854    c-0.776-0.941-6.211-5.905-10.604-9.916c-6.775-6.187-9.789-8.967-10.212-9.628c-0.71-1.109-1.211-2.596-1.341-3.977    c-0.126-1.352-0.174-4.747,2.089-7.1c2.189-2.273,5.463-2.464,8.629-2.464c1.082,0,3.417,0.02,3.417,0.02l1.021,0.009l-0.03,1.021    c-0.016,0.548,0.006,1.518,0.104,1.859c0.086,0.286,0.839,0.954,1.161,1.239c0.161,0.143,0.308,0.273,0.426,0.387    c1.447,1.39,2.914,2.7,4.333,3.966c1.105,0.986,2.215,1.978,3.341,3.026l1.267,1.181c1.438,1.342,3.485,3.251,5.412,5.033    c4.416,4.085,5.32,5.644,5.32,6.727c0,0.322,0.005,0.68,0.011,1.061c0.015,1.022,0.032,2.182-0.038,3.263    c-0.134,2.081-0.761,3.705-1.917,4.963c-1.319,1.439-2.66,2.094-4.483,2.191C61.088,101.338,60.194,101.349,59.241,101.349z"></path>
		<path d="M42.325,66.361c1.08,0,3.409,0.02,3.409,0.02s-0.044,1.512,0.143,2.164c0.206,0.713,1.333,1.571,1.855,2.072    c2.564,2.463,5.082,4.579,7.685,7.002c1.242,1.156,4.072,3.804,6.681,6.217c2.423,2.242,4.999,4.824,4.999,5.992    c0,1.169,0.069,2.814-0.025,4.259c-0.104,1.616-0.539,3.136-1.655,4.352c-1.102,1.201-2.185,1.783-3.8,1.869    c-0.57,0.031-1.444,0.042-2.376,0.042c-2.05,0-4.382-0.051-4.382-0.051s0-1.911-0.182-2.292    c-0.527-1.09-20.066-18.362-20.886-19.644c-0.639-0.999-1.077-2.357-1.188-3.531c-0.194-2.085,0.187-4.621,1.814-6.313    C36.25,66.614,38.985,66.361,42.325,66.361 M42.325,64.361c-3.381,0-6.888,0.214-9.349,2.77c-1.796,1.867-2.658,4.741-2.364,7.885    c0.144,1.533,0.703,3.187,1.494,4.424c0.471,0.736,2.635,2.756,10.38,9.827c3.874,3.538,9.078,8.29,10.322,9.611    c0.031,0.37,0.051,0.965,0.051,1.42l0,1.956l1.956,0.043c0.023,0,2.377,0.052,4.426,0.052c1.121,0,1.933-0.015,2.484-0.044    c2.079-0.111,3.673-0.886,5.166-2.515c1.315-1.432,2.028-3.256,2.177-5.575c0.072-1.12,0.055-2.3,0.04-3.341    c-0.005-0.375-0.011-0.729-0.011-1.046c0-1.419-0.923-3.095-5.641-7.46c-1.926-1.781-3.972-3.69-5.409-5.031l-1.268-1.182    c-1.136-1.058-2.265-2.065-3.356-3.04c-1.477-1.318-2.872-2.563-4.305-3.94c-0.127-0.122-0.284-0.262-0.456-0.414    c-0.236-0.209-0.704-0.625-0.88-0.856c-0.043-0.298-0.063-0.991-0.049-1.465l0.06-2.042l-2.042-0.017    C45.751,64.381,43.41,64.361,42.325,64.361L42.325,64.361z"></path>
	</g>
	<g>
		<path fill="#FFCD05" d="M78.024,101.294c-6.943,0-8.213-3.529-8.213-10.48c0-4.591-0.016-10.068-0.027-14.083    c-0.006-2.324-0.012-4.159-0.012-5.048c0-3.03,1.902-6.569,7.262-6.569h10.063v36.181H78.024z"></path>
		<path d="M86.097,66.113v34.181c0,0-2.313,0-8.073,0c-5.761,0-7.213-2.231-7.213-9.48c0-7.248-0.039-16.705-0.039-19.131    c0-2.429,1.434-5.569,6.262-5.569C81.864,66.113,86.097,66.113,86.097,66.113 M88.097,64.113h-2h-9.063    c-5.708,0-8.262,3.802-8.262,7.569c0,0.89,0.005,2.726,0.012,5.051c0.011,4.014,0.027,9.49,0.027,14.08    c0,7.271,1.507,11.48,9.213,11.48h8.073h2v-2V66.113V64.113L88.097,64.113z"></path>
	</g>
	<g>
		<path fill="#FFCD05" d="M44.92,101.404c-2.235,0-4.269-0.033-6.045-0.097c-3.369-0.123-7.385-1.894-7.385-9.641    c0-1.596,0.028-3.927,0.052-5.873c0.017-1.387,0.031-2.578,0.031-3.163v-2.244l3.853,3.464l4.498,4.279l2.403,2.294l2.384,2.168    l2.42,2.31l2.274,2.056l5.071,4.269l-2.611,0.082C51.833,101.308,48.721,101.404,44.92,101.404z"></path>
		<path d="M32.574,82.63l2.185,1.964l2.184,2.076l2.292,2.184l2.402,2.293l2.401,2.185l2.402,2.293l2.293,2.074l3.099,2.609    c0,0-3.084,0.096-6.913,0.096c-1.914,0-4.015-0.024-6.009-0.096c-6.031-0.219-6.421-5.908-6.421-8.642    C32.49,88.931,32.574,84.036,32.574,82.63 M30.574,78.143v4.487c0,0.583-0.015,1.769-0.031,3.151    c-0.023,1.907-0.052,4.28-0.052,5.885c0,8.995,5.231,10.527,8.349,10.64c1.789,0.065,3.835,0.098,6.082,0.098    c3.816,0,6.944-0.096,6.976-0.097l5.223-0.163l-3.998-3.366l-3.072-2.586l-2.248-2.033l-2.383-2.274l-2.437-2.217l-2.367-2.26    l-2.294-2.185l-2.186-2.078l-0.02-0.019l-0.021-0.019l-2.185-1.964L30.574,78.143L30.574,78.143z"></path>
	</g>
	<g>
		<path fill="#FFCD05" d="M88.545,80.97V65.153l0.998-0.002c0,0,8.178-0.02,10.284-0.02c2.763,0,6.76,2.127,6.76,5.973v9.866H88.545    z"></path>
		<path d="M99.826,66.131c2.105,0,5.76,1.691,5.76,4.973c0,3.284,0,8.866,0,8.866H89.545V66.15    C89.545,66.15,97.721,66.131,99.826,66.131 M99.826,64.131c-2.106,0-10.286,0.02-10.286,0.02l-1.995,0.005v1.995V79.97v2h2h16.042    h2v-2v-8.866C107.586,66.614,102.998,64.131,99.826,64.131L99.826,64.131z"></path>
	</g>
	<g>
		<path fill="#FFCD05" d="M99.826,101.289c-2.106,0-10.283-0.018-10.283-0.018l-0.998-0.002V85.35h18.042v9.967    C106.586,99.162,102.589,101.289,99.826,101.289z"></path>
		<path d="M105.586,86.35c0,0,0,5.684,0,8.967c0,3.281-3.655,4.973-5.76,4.973s-10.281-0.018-10.281-0.018V86.35H105.586     M107.586,84.35h-2H89.545h-2v2v13.922v1.996l1.996,0.004c0,0,8.179,0.018,10.286,0.018c3.172,0,7.76-2.483,7.76-6.973V86.35    V84.35L107.586,84.35z"></path>
	</g>
	<g>
		<path fill="#FFCD05" d="M195.97,101.286c-6.904,0-8.213-3.845-8.213-10.94c0-4.59-0.016-9.841-0.027-13.691    c-0.006-2.23-0.012-3.99-0.012-4.88c0-3.03,1.902-6.567,7.261-6.567h10.063v36.079H195.97z"></path>
		<path d="M204.043,66.207v34.079c0,0-2.313,0-8.073,0c-5.761,0-7.213-2.694-7.213-9.94c0-7.247-0.039-16.145-0.039-18.571    s1.434-5.567,6.261-5.567C199.809,66.207,204.043,66.207,204.043,66.207 M206.043,64.207h-2h-9.063    c-5.707,0-8.261,3.801-8.261,7.567c0,0.891,0.005,2.652,0.012,4.883c0.011,3.849,0.027,9.1,0.027,13.688    c0,7.372,1.541,11.94,9.213,11.94h8.073h2v-2V66.207V64.207L206.043,64.207z"></path>
	</g>
	<g>
		<path fill="#FFCD05" d="M206.765,101.286V65.207h9.073c6.943,0,8.213,3.529,8.213,10.48c0,4.59,0.015,10.026,0.026,14.011    c0.007,2.308,0.012,4.129,0.012,5.019c0,3.03-1.902,6.568-7.261,6.568H206.765z"></path>
		<path d="M215.838,66.207c5.76,0,7.213,2.234,7.213,9.48c0,7.248,0.038,16.604,0.038,19.03c0,2.426-1.433,5.568-6.261,5.568    c-4.83,0-9.063,0-9.063,0V66.207C207.765,66.207,210.079,66.207,215.838,66.207 M215.838,64.207h-8.073h-2v2v34.079v2h2h9.063    c5.707,0,8.261-3.801,8.261-7.568c0-0.891-0.005-2.713-0.012-5.022c-0.011-3.984-0.026-9.419-0.026-14.008    C225.051,68.417,223.544,64.207,215.838,64.207L215.838,64.207z"></path>
	</g>
	<g>
		<path fill="#FFCD05" d="M166.282,101.307V65.203h12.103c3.63,0,5.877,2.472,5.877,4.763V80.59c0,2.611-2.143,4.298-5.459,4.298    h-5.587l16.761,16.437L166.282,101.307z"></path>
		<path d="M178.385,66.203c3.205,0,4.877,2.137,4.877,3.763c0,2.369,0,8.255,0,10.624s-2.228,3.298-4.459,3.298    c-2.229,0-8.036,0-8.036,0l16.759,16.435l-20.244-0.015V66.203C167.282,66.203,176.388,66.203,178.385,66.203 M178.385,64.203    h-11.103h-2v2v34.104v1.999l1.999,0.001l20.244,0.015l4.901,0.003l-3.499-3.431l-13.264-13.007h3.14    c3.864,0,6.459-2.129,6.459-5.298V69.966C185.262,67.194,182.633,64.203,178.385,64.203L178.385,64.203z"></path>
	</g>
	<g>
		<g>
			<rect x="31.609" y="48.234" fill="#FFCD05" width="273.045" height="6.222"></rect>
			<path d="M303.655,49.234v4.222H32.609v-4.222H303.655 M305.655,47.234h-2H32.609h-2v2v4.222v2h2h271.045h2v-2v-4.222V47.234     L305.655,47.234z"></path>
		</g>
	</g>
	<g>
		<path fill-rule="evenodd" clip-rule="evenodd" fill="#FFCD05" d="M289.625,126.486c-5.712,0-10.277-0.548-13.567-1.63    c-4.504-1.426-5.452-3.652-5.452-5.268c0-2.371,1.895-4.179,5.632-5.375c3.531-1.115,8.325-1.68,14.253-1.68    c3.85,0,7.155,0.32,9.559,0.925c2.841,0.693,4.363,1.663,4.784,3.049c0.092,0.303,0.035,0.632-0.154,0.886    s-0.487,0.404-0.803,0.404h-4.636c-0.333,0-0.644-0.166-0.829-0.441c-0.152-0.226-0.828-0.69-2.396-0.999    c-1.476-0.299-3.579-0.456-6.087-0.456c-4.063,0-7.395,0.417-9.632,1.208c-1.385,0.46-3.016,1.258-3.016,2.479    c0,0.923,0.986,1.74,2.931,2.428c2.268,0.752,5.664,1.153,9.802,1.153c2.114,0,3.825-0.067,5.23-0.206    c1.383-0.086,2.619-0.202,3.646-0.339v-1.035h-8.789c-0.552,0-1-0.448-1-1v-1.369c0-0.552,0.448-1,1-1h14.165c0.552,0,1,0.448,1,1    v5.056c0,0.483-0.345,0.897-0.82,0.984c-2.396,0.438-4.907,0.752-7.26,0.908C294.771,126.379,292.22,126.486,289.625,126.486z     M150.662,126.486c-5.351,0-9.563-0.552-12.518-1.642c-4.228-1.512-5.117-3.75-5.117-5.36c0-2.264,1.751-4.05,5.206-5.31    c3.139-1.091,7.477-1.642,12.905-1.642c4.35,0,7.616,0.285,9.987,0.872c1.797,0.437,4.246,1.241,4.716,3.154    c0.073,0.298,0.005,0.614-0.185,0.855c-0.189,0.242-0.479,0.383-0.787,0.383h-4.938c-0.393,0-0.75-0.23-0.912-0.589    c-0.067-0.125-0.598-0.556-2.098-0.851c-1.567-0.37-3.659-0.561-6.088-0.561c-3.541,0-6.504,0.415-8.568,1.199    c-0.957,0.363-2.561,1.168-2.561,2.487c0,0.387,0,1.564,2.655,2.595c2.002,0.746,5.102,1.142,8.951,1.142    c2.486,0,4.465-0.2,5.883-0.594c1.558-0.359,1.952-0.804,1.969-0.895c0.086-0.476,0.501-0.826,0.985-0.826h5.025    c0.322,0,0.624,0.155,0.812,0.417c0.188,0.261,0.238,0.597,0.136,0.902c-0.502,1.496-2.185,2.601-5,3.284    C158.599,126.156,155.076,126.486,150.662,126.486z M242.798,126.275c-0.153,0-0.304-0.035-0.442-0.103l-18.874-9.293v8.396    c0,0.552-0.448,1-1,1h-3.898c-0.552,0-1-0.448-1-1v-11.583c0-0.552,0.448-1,1-1h5.803c0.155,0,0.308,0.036,0.447,0.105    l18.567,9.28v-8.385c0-0.552,0.448-1,1-1h3.855c0.552,0,1,0.448,1,1v11.583c0,0.552-0.448,1-1,1H242.798z M188.133,126.275    c-0.552,0-1-0.448-1-1v-11.583c0-0.552,0.448-1,1-1h4.46c0.552,0,1,0.448,1,1v11.583c0,0.552-0.448,1-1,1H188.133z     M111.545,126.275c-0.213,0-0.42-0.068-0.592-0.194l-3.894-2.86H88.03l-4.207,2.879c-0.167,0.114-0.363,0.175-0.565,0.175h-4.635    c-0.436,0-0.822-0.283-0.954-0.699s0.022-0.869,0.379-1.12l16.504-11.583c0.168-0.118,0.369-0.182,0.574-0.182h5.502    c0.21,0,0.415,0.066,0.585,0.189l16.07,11.583c0.352,0.253,0.5,0.706,0.367,1.118c-0.133,0.413-0.518,0.693-0.952,0.693H111.545z     M102.557,119.853l-4.763-3.557l-5.082,3.557H102.557z M55.405,126.275c-0.229,0-0.45-0.078-0.628-0.222    c-0.257-0.208-0.546-0.463-0.742-0.778c-0.212-0.319-0.48-0.723-0.643-1.208l-0.88-1.834c-0.074-0.187-0.397-0.532-1.327-0.714    c-1.181-0.221-3.324-0.349-5.873-0.349h-7.62v4.105c0,0.552-0.448,1-1,1h-4.246c-0.552,0-1-0.448-1-1v-11.583c0-0.552,0.448-1,1-1    h14.208c2.391,0,4.22,0.078,5.556,0.135l0.549,0.023c1.312,0.057,2.577,0.271,3.409,0.441c1.226,0.31,2.202,0.733,2.87,1.234    c0.844,0.629,1.309,1.437,1.309,2.272c0,0.826-0.414,1.986-2.387,2.818c-0.155,0.065-0.321,0.128-0.498,0.188    c0.508,0.419,0.948,1.01,1.314,1.777l0.807,1.549c0.111,0.24,0.246,0.429,0.376,0.611c0.086,0.12,0.163,0.232,0.227,0.335    c0.153,0.138,0.306,0.235,0.401,0.273c0.444,0.179,0.699,0.647,0.608,1.118c-0.091,0.47-0.503,0.81-0.982,0.81H55.405z     M44.965,117.854c3.649,0,6.563-0.132,7.793-0.354c0.217-0.047,1.04-0.253,1.04-0.594c-0.031-0.057-0.302-0.279-1.075-0.447    c-0.705-0.147-2.661-0.397-7.758-0.397h-7.273v1.792H44.965z"></path>
		<path d="M290.492,113.533c3.813,0,7.018,0.316,9.315,0.895c2.382,0.581,3.768,1.369,4.071,2.37h-4.636    c-0.39-0.578-1.428-1.105-3.032-1.421c-1.559-0.315-3.725-0.475-6.28-0.475c-4.159,0-7.581,0.423-9.965,1.265    c-2.382,0.791-3.683,1.948-3.683,3.422c0,1.423,1.215,2.528,3.597,3.371c2.382,0.79,5.803,1.21,10.136,1.21    c1.907,0,3.725-0.053,5.329-0.211c1.689-0.104,3.293-0.264,4.548-0.473v-2.896h-9.789v-1.369h14.165v5.056    c-2.297,0.42-4.764,0.736-7.146,0.895c-2.427,0.211-4.982,0.315-7.495,0.315c-5.587,0-10.05-0.526-13.255-1.58    c-3.162-1.001-4.764-2.474-4.764-4.317c0-1.896,1.644-3.369,4.937-4.423C279.879,114.112,284.601,113.533,290.492,113.533     M151.138,113.533c4.158,0,7.407,0.264,9.747,0.843c2.382,0.579,3.727,1.369,3.985,2.422h-4.938    c-0.261-0.578-1.212-1.105-2.816-1.421c-1.559-0.368-3.725-0.579-6.281-0.579c-3.812,0-6.845,0.475-8.924,1.265    c-2.079,0.788-3.205,2-3.205,3.422c0,1.527,1.126,2.686,3.292,3.527c2.122,0.79,5.328,1.21,9.313,1.21    c2.556,0,4.634-0.209,6.151-0.631c1.604-0.368,2.556-0.949,2.686-1.685h5.025c-0.389,1.158-1.907,2.053-4.289,2.631    c-2.469,0.634-5.891,0.949-10.223,0.949c-5.156,0-9.313-0.526-12.172-1.58c-2.947-1.054-4.463-2.578-4.463-4.422    c0-1.791,1.516-3.265,4.548-4.37C141.608,114.061,145.896,113.533,151.138,113.533 M248.258,113.692v11.583h-5.459l-20.316-10.003    v10.003h-3.898v-11.583h5.803l20.015,10.003v-10.003H248.258 M192.593,113.692v11.583h-4.46v-11.583H192.593 M100.63,113.692    l16.07,11.583h-5.155l-4.158-3.054H87.721l-4.462,3.054h-4.635l16.504-11.583H100.63 M89.54,120.853h16.027l-7.753-5.791    L89.54,120.853 M46.655,113.692c2.729,0,4.765,0.104,6.064,0.157c1.257,0.055,2.47,0.263,3.249,0.422    c1.04,0.264,1.906,0.631,2.47,1.054c0.563,0.42,0.909,0.946,0.909,1.473c0,0.791-0.65,1.422-1.775,1.896    c-1.127,0.475-2.947,0.79-5.242,0.948c1.559,0,2.859,0.157,3.638,0.473c0.823,0.264,1.429,0.896,1.906,1.896l0.823,1.58    c0.216,0.475,0.563,0.842,0.693,1.105c0.26,0.264,0.563,0.475,0.823,0.579h-4.809c-0.129-0.104-0.389-0.315-0.52-0.526    c-0.173-0.264-0.434-0.632-0.563-1.054l-0.909-1.896c-0.218-0.579-0.954-1.051-2.037-1.263c-1.127-0.211-3.206-0.367-6.064-0.367    h-8.62v5.105h-4.246v-11.583H46.655 M36.692,118.854h8.273c4.073,0,6.801-0.159,7.971-0.37c1.213-0.264,1.862-0.79,1.862-1.578    c0-0.686-0.649-1.16-1.862-1.424c-1.256-0.263-3.985-0.42-7.971-0.42h-8.273V118.854 M290.492,111.533    c-6.03,0-10.925,0.581-14.551,1.726c-4.206,1.346-6.334,3.475-6.334,6.33c0,1.95,1.069,4.612,6.16,6.224    c3.371,1.108,8.041,1.673,13.859,1.673c2.623,0,5.203-0.108,7.668-0.323c2.35-0.156,4.899-0.475,7.333-0.92    c0.95-0.173,1.64-1.001,1.64-1.967v-5.056c0-0.577-0.244-1.097-0.635-1.462c0.257-0.468,0.317-1.023,0.16-1.542    c-0.702-2.312-3.481-3.237-5.511-3.732C297.813,111.863,294.423,111.533,290.492,111.533L290.492,111.533z M288.862,122.159    c-3.508-0.067-6.38-0.443-8.353-1.098c-1.527-0.541-2.227-1.132-2.227-1.473c0-0.364,0.724-0.996,2.313-1.524    c2.167-0.765,5.383-1.163,9.334-1.163c2.084,0,3.872,0.109,5.225,0.318h-5.052c-1.104,0-2,0.896-2,2v1.369    C288.103,121.226,288.399,121.793,288.862,122.159L288.862,122.159z M151.138,111.533c-5.541,0-9.988,0.569-13.219,1.692    c-4.875,1.777-5.892,4.383-5.892,6.259c0,1.932,1.004,4.594,5.79,6.305c3.048,1.124,7.376,1.697,12.845,1.697    c4.498,0,8.104-0.34,10.72-1.012c3.146-0.763,5.068-2.088,5.688-3.931c0.205-0.61,0.104-1.282-0.272-1.805    c-0.376-0.522-0.98-0.833-1.624-0.833h-5.025c-0.846,0-1.585,0.529-1.873,1.297c-0.157,0.093-0.525,0.269-1.261,0.438    c-0.029,0.007-0.059,0.014-0.088,0.022c-1.33,0.37-3.219,0.558-5.615,0.558c-4.713,0-7.287-0.59-8.615-1.084    c-0.894-0.347-1.99-0.926-1.99-1.653c0-0.502,0.751-1.111,1.914-1.552c1.926-0.732,4.843-1.135,8.215-1.135    c2.319,0,4.386,0.187,5.821,0.525c0.025,0.006,0.049,0.011,0.074,0.016c0.936,0.184,1.35,0.401,1.487,0.487    c0.358,0.598,1.007,0.971,1.715,0.971h4.938c0.614,0,1.194-0.282,1.574-0.766c0.379-0.483,0.515-1.114,0.369-1.711    c-0.599-2.442-3.4-3.389-5.455-3.889C158.915,111.828,155.57,111.533,151.138,111.533L151.138,111.533z M248.258,111.692h-3.855    c-1.104,0-2,0.896-2,2v6.768l-17.121-8.557c-0.277-0.139-0.583-0.211-0.894-0.211h-5.803c-1.104,0-2,0.896-2,2v11.583    c0,1.104,0.896,2,2,2h3.898c1.104,0,2-0.896,2-2v-6.789l17.433,8.583c0.275,0.135,0.577,0.206,0.883,0.206h5.459    c1.104,0,2-0.896,2-2v-11.583C250.258,112.588,249.362,111.692,248.258,111.692L248.258,111.692z M192.593,111.692h-4.46    c-1.104,0-2,0.896-2,2v11.583c0,1.104,0.896,2,2,2h4.46c1.104,0,2-0.896,2-2v-11.583    C194.593,112.588,193.697,111.692,192.593,111.692L192.593,111.692z M100.63,111.692h-5.502c-0.411,0-0.813,0.127-1.149,0.363    l-16.504,11.583c-0.714,0.501-1.021,1.408-0.758,2.24c0.263,0.832,1.035,1.397,1.907,1.397h4.635c0.403,0,0.797-0.122,1.129-0.35    l3.951-2.704h18.393l3.629,2.666c0.343,0.252,0.758,0.388,1.184,0.388h5.155c0.868,0,1.637-0.56,1.903-1.386    c0.267-0.826-0.03-1.729-0.734-2.237l-16.07-11.583C101.459,111.824,101.05,111.692,100.63,111.692L100.63,111.692z     M95.885,118.853l1.891-1.323l1.771,1.323H95.885L95.885,118.853z M46.655,111.692H32.447c-1.104,0-2,0.896-2,2v11.583    c0,1.104,0.896,2,2,2h4.246c1.104,0,2-0.896,2-2v-3.105h6.62c2.453,0,4.583,0.125,5.696,0.333c0.32,0.063,0.524,0.151,0.623,0.207    l0.833,1.738c0.206,0.581,0.513,1.043,0.702,1.329l0.038,0.057c0.271,0.427,0.628,0.743,0.943,0.998    c0.355,0.287,0.799,0.444,1.256,0.444h4.809c0.958,0,1.781-0.679,1.963-1.619s-0.327-1.878-1.216-2.236c0,0,0,0,0,0    c0.001,0-0.003-0.004-0.013-0.011c-0.059-0.089-0.119-0.172-0.175-0.251c-0.103-0.144-0.208-0.292-0.256-0.397    c-0.015-0.032-0.03-0.063-0.046-0.094l-0.808-1.552c-0.167-0.345-0.35-0.663-0.549-0.952c1.922-1.085,2.233-2.541,2.233-3.366    c0-1.159-0.608-2.251-1.713-3.075c-0.972-0.729-2.263-1.159-3.174-1.39c-0.03-0.008-0.061-0.015-0.091-0.021    c-0.867-0.177-2.188-0.401-3.563-0.46l-0.553-0.023C50.984,111.774,49.067,111.692,46.655,111.692L46.655,111.692z"></path>
	</g>
</g>
</svg>
